<svg xmlns="http://www.w3.org/2000/svg" fill="none" viewBox="0 0 24 24" id="Web3js--Streamline-Svg-Logos" height="24" width="24">
  <desc>
    Web3js Streamline Icon: https://streamlinehq.com
  </desc>
  <path fill="#808285" d="M8.086475 5.029275s-0.8709 0.5028 -0.8709 1.50685l0 5.0186s0 1.0056 -0.870875 0.5028c-0.8709 -0.5028 -0.8709 -1.50685 -0.8709 -1.50685l0 -5.0186c0 -0.06265 0.003125 -0.123725 0.0094 -0.18325 0.09555 -0.883425 0.859925 -1.32515 0.859925 -1.32515l-1.740225 -1.004025s-0.001575 0 -0.003125 0.00155c-0.0517 0.029775 -0.867775 0.532575 -0.867775 1.505275l0 5.0186s0 1.0056 -0.870875 0.5028c-0.8709025 -0.5028 -0.8709025 -1.506825 -0.8709025 -1.506825l0 -5.0186c0 -1.00405 0.8709025 -1.50684 0.8709025 -1.50684l-1.74023 -1.0056S0.25 1.51281 0.25 2.51685l0 5.0186s0 3.015225 2.611125 4.522075c0.8004 0.462075 1.3549 0.4981 1.7402 0.327375 0.385325 0.615575 0.939825 1.220175 1.740225 1.68225 2.611125 1.50685 2.611125 -1.506825 2.611125 -1.506825l0 -5.0186c0 -1.0056 0.8709 -1.50685 0.8709 -1.50685 -0.2677 -0.33675 -0.50575 -0.565425 -0.714125 -0.68605 -0.17765 -0.10285 -0.518625 -0.20935 -1.022975 -0.31955Z" stroke-width="0.25"></path>
  <path fill="#bcbec0" d="M17.658475 13.5691c0 -2.9761 2.611125 -1.50685 2.611125 -1.50685l3.480425 2.00965v2.009625l-3.480425 -2.009625s-0.010975 -0.00635 -0.03045 -0.016175l-0.011475 -0.005675c-0.1738 -0.084975 -0.828975 -0.34735 -0.828975 0.5262 0 1.00405 0.8709 1.50685 0.8709 1.50685l1.740225 1.004025s1.7402 1.0056 1.7402 4.019275 -2.6111 1.506825 -2.6111 1.506825l-3.48045 -2.009625v-2.00965l3.482 2.00965s0.8709 0.5028 0.8709 -0.5028c0 -1.00405 -0.8709 -1.50685 -0.8709 -1.50685l-0.870875 -0.5028c-0.051975 -0.03105 -2.611125 -1.57575 -2.611125 -4.52205ZM15.04735 9.048575c0.520425 0.059825 0.873225 0.143225 1.058425 0.25025 0.201525 0.11645 0.4288 0.368225 0.6818 0.75535 0 0 -0.870875 0.5028 -0.870875 1.50685l-0.000075 5.026525c-0.002275 0.168825 -0.078275 2.96055 -2.61105 1.4989 -2.532775 -1.461625 -2.608775 -4.3425 -2.61105 -4.51405l-0.000075 -0.008 1.740225 1.0056 0.00005 0.00335c0.00095 0.06375 0.0293 1.017625 0.87085 1.503475 0.844225 0.4874 0.870075 -0.44265 0.870875 -0.50005l0.000025 -5.02135c0 -1.00405 0.870875 -1.50685 0.870875 -1.50685Zm-4.34975 0.513775 1.7402 1.004025v2.00965l-1.7402 -1.00405v-2.009625Z" stroke-width="0.25"></path>
  <path fill="#f16822" d="M20.26955 5.02945c-0.801975 -0.46365 -1.52095 -0.6892 -2.133375 -0.78005 -0.159775 -0.3493 -0.551375 -0.759675 -1.347075 -1.213925 -2.611125 -1.491165 -5.220675 -0.01565 -5.220675 -0.01565l-3.482 2.009625 1.740225 1.004025 3.48045 -2.009625s0.870875 -0.5028 1.7402 0c0.8709 0.5028 0 1.0056 0 1.0056l-3.480425 2.009625 1.740225 1.00405 3.483575 -2.0112c0.051675 -0.029775 0.894375 -0.485575 1.737075 0.00155 0.8709 0.5028 0 1.00405 0 1.00405l-3.48045 2.009625 1.740225 1.0056 4.35135 -2.512425s1.740225 -1.00405 -0.869325 -2.510875Z" stroke-width="0.25"></path>
</svg>