<svg width="2032" height="2500" viewBox="0 0 256 315" xmlns="http://www.w3.org/2000/svg"
    preserveAspectRatio="xMinYMin meet">
    <path
        d="M255.879 127.868c0 70.455-57.11 127.565-127.567 127.565-70.45 0-127.566-57.11-127.566-127.565C.746 57.418 57.862.302 128.312.302c70.456 0 127.567 57.116 127.567 127.566"
        fill="#1A1918" />
    <path
        d="M130.46 78.229l33.011 81.476-49.863-39.278L130.46 78.23zm58.644 100.245L138.326 56.272c-1.45-3.524-4.348-5.39-7.866-5.39-3.525 0-6.634 1.866-8.084 5.39l-55.732 134.04h19.065l22.062-55.265 65.84 53.19c2.647 2.141 4.558 3.11 7.041 3.11 4.974 0 9.322-3.73 9.322-9.111 0-.876-.31-2.267-.87-3.762z"
        fill="#FFF" />
</svg>